# xmcd
#
# Track frame offsets: 
#        150
#        13302
#        26637
#        40235
#        55390
#        69190
#        83105
#        94975
#        107880
#        126142
#        141965
#        154417
#        169880
#        187037
#        203920
#
# Disc length: 2849 seconds
#
# Revision: 0
# Processed by: cddbd v1.4PL0 Copyright (c) Steve Scherf et al.
# Submitted via: ExactAudioCopy v0.90b4
#
DISCID=da0b1f0f
DTITLE=Slawek Wierzcholski i Nocna Zmiana - co tylko chcesz ...
DYEAR=1900
DGENRE=Blues
TTITLE0=Naprzod marsz
TTITLE1=Piosenka b. optymistyczna
TTITLE2=Co tylko chcesz
TTITLE3=Piatek wieczorem
TTITLE4=Milosc z V L.O.
TTITLE5=Wciaz nie wiem nic
TTITLE6=Nocne rozmyslania
TTITLE7=Czarno-bialy film
TTITLE8=Nieznajomy przyjaciel
TTITLE9=Wlasnie ten dzien
TTITLE10=Dmuchawiec
TTITLE11=Usmiech przez sen
TTITLE12=Nie pytaj ktora godzina
TTITLE13=My dwaj
TTITLE14=Zawsze wygra blues
EXTD=
EXTT0=
EXTT1=
EXTT2=
EXTT3=
EXTT4=
EXTT5=
EXTT6=
EXTT7=
EXTT8=
EXTT9=
EXTT10=
EXTT11=
EXTT12=
EXTT13=
EXTT14=
PLAYORDER=
